# xmcd CD database file
#
# Track frame offsets:
#	150
#	18331
#	40550
#	60451
#	80803
#	101508
#	120650
#	137101
#	156660
#	176133
#
# Disc length: 2654 seconds
#
# Revision: 0
# Processed by: cddbd v1.4PL0 Copyright (c) Steve Scherf et al.
# Submitted via: CDex 1.40Release
#
DISCID=830a5c0a
DTITLE=Johnny Rawls - The Best Of Johnny Rawls
DYEAR=2002
DGENRE=Blues
TTITLE0=Bad Reputation
TTITLE1=You Got Me Going Thru Changes
TTITLE2=Should Be At Work
TTITLE3=I Don't Want No Woman
TTITLE4=I Feel So Good
TTITLE5=I Wanna Come Home
TTITLE6=Here We Go
TTITLE7=What A Night
TTITLE8=Oh Please Come Back
TTITLE9=How Much Longer
EXTD=YEAR: 2002 ID3G: 0
EXTT0=
EXTT1=
EXTT2=
EXTT3=
EXTT4=
EXTT5=
EXTT6=
EXTT7=
EXTT8=
EXTT9=
PLAYORDER=
